<svg width="1019" height="639" fill="none" xmlns="http://www.w3.org/2000/svg">
  <path fill="#09A59A" fill-opacity=".8" d="M0 0h1019v639H0z"/>
  <rect x="118.4" y="135" width="318.7" height="204.8" rx="14" stroke="#000" stroke-width="14"/>
  <path transform="translate(118.4 337.9)" stroke="#000" stroke-width="15" d="M0-7.5h318.8"/>
  <rect x="240.1" y="339.8" width="85.3" height="62.5" rx="14" fill="#000"/>
  <rect x="159.8" y="403.7" width="247.2" height="13.3" rx="6.7" fill="#000"/>
  <path fill-rule="evenodd" clip-rule="evenodd" d="M283.5 143.6a24 24 0 0 0-11 11.1l-.6 1.2a14 14 0 0 0-1.5 6.3v20c0 2.1-1.6 3.8-3.7 3.8l-36 .5-30.3.5a14 14 0 0 0-3.5.5l-2.9.8a67.1 67.1 0 0 0-39.7 29.9c-1.4 2.2-2.3 4.2-2.2 4.6.2.4.1.6-.1.5-.6-.4-2.7 4.8-3.9 9.3a60 60 0 0 0-.3 25.2c1 4.3 3.2 10.2 3.8 10.2.3 0 1.3 1.5 2.1 3.4a59.9 59.9 0 0 0 29 27.9c8.8 4 16.5 5.7 26.6 5.7a62.2 62.2 0 0 0 49.2-24.2 7 7 0 0 1 5.6-2.8h21.7c2.4 0 4.6 1 6 2.9a88.1 88.1 0 0 0 17.8 15.7c5 3 11.5 5.5 17.5 7 4.1 1 5.8 1.2 14.5 1.1 9 0 10.3-.1 15-1.4a63.9 63.9 0 0 0 39.3-30.7 66.7 66.7 0 0 0 5.7-16.8 57 57 0 0 0-16.5-50.8c-8-7.9-14.7-12-24.7-15.2-3-1-7.1-2-9.2-2.3-2.5-.4-16-.7-37.7-.9l-21.3-.1c-7 0-12.4-5.8-12.3-12.7.2-7.6.5-13.3.9-14.5 1-3 5.9-7.5 9.3-8.5 1.5-.4 3.3-.8 3.9-.8 3.2 0 6.7 1.6 9.6 4.5 3.2 3 4.6 6.2 4.6 10 0 2.4 2.7 7.6 4.8 9.3 6 5 12.9 4.8 18.7-.3 4.3-3.8 4.5-4.6 4.8-19.1l.2-7.4c0-2.7-2.1-5-4.8-5a5 5 0 0 0-5 5l-.2 7.1v10a4 4 0 0 1-2 3.3c-2 1.3-3.7 1.2-5.4-.6-.9-.7-1.4-2.3-2-5.5a30 30 0 0 0-2.3-7.6c-2-3.9-6.3-8-10.5-10.1-3.1-1.6-3.3-1.6-10.5-1.6-7.1 0-7.3 0-10.5 1.6Zm40 52.4c30.2.5 30.6.5 39.3 4.4a49.6 49.6 0 0 1 25.4 66.5 50.6 50.6 0 0 1-47.1 28.8c-6.9 0-9-.2-12.3-1a54.2 54.2 0 0 1-30.7-21c-2.2-3-5.6-4.7-9.3-4.8h-4.3c-21-.3-26.6-.1-28.4.8-1 .5-3 2.6-4.7 4.7a52.7 52.7 0 0 1-88.9-6.6 48.6 48.6 0 0 1 10-57.3 52.6 52.6 0 0 1 23.3-13c3.7-1 6-1.1 29.1-1.5 36.8-.5 68.2-.5 98.6 0Zm13.9 23.5a9 9 0 0 0-4.9 11.2c.8 2.3 4 5.1 6.7 5.8 6 1.5 12.2-4.1 11.2-10.1a9.6 9.6 0 0 0-5.1-6.9 8.8 8.8 0 0 0-8 0Zm-131.2 5a5.2 5.2 0 0 0-1.8 3.7l-.1 5.5a8 8 0 0 1-8 7.8h-6c-1.2 0-2.4.5-3.3 1.4-2 2-2 4.6.2 6.3 1.5 1.3 1.7 1.3 9.2 1.3 4.3 0 7.8 3.4 7.9 7.7.1 6.9.3 7.8 1.2 8.8 1.6 1.7 3.2 2.1 5.2 1.3 1-.4 2-1.2 2.3-1.7.3-.6.5-4.1.5-8.6 0-4.1 3.4-7.5 7.6-7.5 8.3 0 10-.4 11-2.9.8-1.7.3-3.7-1-5-1-.7-2.3-.9-9.2-1.1h-.3c-4.4-.1-8-3.7-8-8.1-.4-8.7-.7-9.5-4-10.2-1.3-.2-2 0-3.4 1.2Zm-54.7.8c-.6 1-.8.7-.3-.5.2-.5.5-.7.6-.6.1.1 0 .6-.3 1.1Zm-2.7 9.5c-1 4.2-1 6.2-.9 12.7a55.3 55.3 0 0 0 2.8 17.7 41 41 0 0 1-3.1-19.2c0-7.4.1-10 1-12.9.4-2 1-3.6 1-3.5.2.1-.2 2.4-.8 5.2Zm169.4 3c-3 1.5-5.3 5.1-5.3 8.5a12 12 0 0 0 3.4 6.3c4 3.6 10 3 13.5-1.4 1-1.4 1.4-2.5 1.6-4.9.2-2.7 0-3.3-1.2-5.1-.8-1.2-2.3-2.6-3.4-3.2a10.8 10.8 0 0 0-8.6-.2Zm37.9 0c-5.8 2.9-7 9.3-2.7 14 3.6 4 9 4.3 13.2.5 3-2.6 3.6-7.3 1.5-10.9a9.8 9.8 0 0 0-12-3.6Zm-93.6 5.1c-1.8 1.8-1.8 4-.1 6 .8.8 2 1.4 3.1 1.4h9.5c11.4 0 11.4 0 12.7-1.3 2-1.8 1.9-4.5-.2-6.2-1-.8-2.3-1.3-3.7-1.3H266c-1.3 0-2.5.5-3.4 1.4Zm74.9 13a9.1 9.1 0 0 0-4.9 11.3c.8 2.3 4 5.1 6.7 5.8 6 1.5 12.2-4.1 11.2-10.1s-7.5-9.5-13-7Z" fill="red"/>
  <g filter="url(#a)">
    <path d="M205.3 350.2h14.2v1.7l-5.7 1.8-18.2 17.3 23 23.6 5.6.4v2h-20.3v-2l5-.4-18.9-20v20l6.1.7v1.7h-19.4v-1.7l6.1-.6v-42.1l-6-.7v-1.7H196v1.7l-6 .7v20l20.2-19.1-5-1.6v-1.7Z" fill="red"/>
  </g>
  <g filter="url(#b)">
    <path d="M380 395.7a63.8 63.8 0 0 1-15.5 1.7c-9.7 0-16.8-2.3-21.4-7-1.7-1.7-3-3.8-4-6.5a29.1 29.1 0 0 1 .7-20.6c1.6-3.3 3.6-5.9 6.2-7.8a30.2 30.2 0 0 1 18.5-5.8l14.4.7.5 12.7H377l-2.4-9.2c-2.5-1-5.5-1.6-9-1.6a19 19 0 0 0-14 5.6c-3.7 3.7-5.5 9.1-5.5 16.2s1.8 12.4 5.4 15.8c3.6 3.3 8.3 5 13.9 5 2.8 0 5.3-.3 7.6-.8v-15l-5.9-.6v-1.7h17v1.7l-4.3.6v16.6Z" fill="red"/>
  </g>
  <path d="M200.7 433h4.9v.5l-2 .7-6.2 5.9 7.9 8 2 .2v.7h-7v-.7l1.7-.1-6.5-6.9v7l2 .1v.6H191v-.6l2.1-.2v-14.4l-2-.3v-.5h6.6v.5l-2.1.3v6.8l7-6.5-1.8-.6v-.5Zm12.4 16h-5.6v-.6l1.6-.1v-16.5l-2.1-.1v-.6l4.5-.5v17.7l1.6.1v.6Zm4-2.6c0 1 .4 1.7 1.2 1.9h.6c.6 0 1.2-.2 1.9-.7.6-.6 1-1.3 1-2.2v-2c-3.2 0-4.8 1-4.8 3Zm.9 2.9c-1 0-1.7-.3-2.4-.8-.6-.5-1-1.2-1-2 0-1.3.7-2.2 2-2.9 1.2-.6 3-.9 5.2-.9v-2c0-2-.8-3-2.2-3-.8 0-1.4.2-1.8.9-.4.4-.5 1-.5 1.6v.8l-.6.3c-.3 0-.5 0-.7-.2a1 1 0 0 1-.8-1c0-.8.3-1.4.8-1.9.9-.8 2-1.2 3.6-1.2 1.5 0 2.6.4 3.3 1 .7.6 1 1.7 1 3v7.3l2 .1v.6l-4 .3-.1-2.2c-.8 1.5-2 2.2-3.8 2.2Zm13.4-.6c.7 0 1.2-.2 1.7-.6.5-.3.7-1 .7-1.7 0-.6-.2-1-.7-1.4a311.6 311.6 0 0 1-4.4-2.2 2.6 2.6 0 0 1-1.3-2.3 3 3 0 0 1 1.2-2.5c.8-.6 2-1 3.4-1 1 0 1.8.2 2.5.7.7.4 1 .9 1 1.5s-.2 1-.6 1.2l-.8.2c-.2 0-.4 0-.6-.2v-.9c0-.3 0-.7-.2-1-.3-.6-.8-.9-1.5-.9-.8 0-1.4.2-1.8.6-.4.5-.6 1-.6 1.7s.3 1.2.9 1.5l1.6.8a24.6 24.6 0 0 1 2.2.9l.9.6c.5.6.7 1.3.7 2.2a3 3 0 0 1-1.2 2.4c-.9.6-1.9 1-3 1-1.3 0-2.3-.2-3.2-.6-1-.4-1.4-.9-1.4-1.6 0-.7.5-1 1.5-1.3.3 2 1.3 2.9 3 2.9Zm10.9 0c.6 0 1.1-.2 1.6-.6.5-.3.7-1 .7-1.7 0-.6-.2-1-.7-1.4a311.6 311.6 0 0 1-4.4-2.2 2.6 2.6 0 0 1-1.3-2.3 3 3 0 0 1 1.2-2.5c.8-.6 2-1 3.5-1 1 0 1.7.2 2.4.7.7.4 1 .9 1 1.5s-.2 1-.6 1.2l-.8.2c-.2 0-.4 0-.6-.2v-.9c0-.3 0-.7-.2-1-.2-.6-.8-.9-1.5-.9-.8 0-1.4.2-1.8.6-.4.5-.6 1-.6 1.7s.3 1.2.9 1.5l1.6.8a24.6 24.6 0 0 1 2.2.9l.9.6c.5.6.7 1.3.7 2.2a3 3 0 0 1-1.2 2.4c-.9.6-1.9 1-3 1-1.3 0-2.3-.2-3.2-.6-1-.4-1.4-.9-1.4-1.6 0-.7.5-1 1.5-1.3.3 2 1.3 2.9 3 2.9Zm10.4-15.3c0 .4-.2.7-.4 1-.3.3-.7.4-1 .4-.5 0-.8-.1-1-.4-.3-.3-.5-.6-.5-1s.2-.8.4-1c.3-.3.6-.5 1-.5s.8.2 1 .4c.3.3.5.7.5 1Zm-4.1 15.6v-.6l1.6-.1v-10.2H248v-.6l4.4-.3v11.1l1.6.1v.6h-5.5Zm13.2-12c1 0 1.8.2 2.6.6.5.2.9.5 1.1 1 .3.4.5.9.5 1.5 0 .5-.3 1-.8 1.1l-.7.2-.7-.3.1-1.1c0-.5-.1-1-.4-1.4a2 2 0 0 0-1.8-.9c-2.2 0-3.3 1.8-3.3 5.5 0 1.8.2 3.1.8 4 .5 1 1.3 1.4 2.5 1.4 1.5 0 2.7-.7 3.6-2.2.3.1.5.3.5.6 0 .2-.2.5-.5.8-.2.4-.8.7-1.5 1-.7.3-1.5.5-2.5.5-1.6 0-3-.6-4-1.7a6.4 6.4 0 0 1-1.5-4.5c0-1.8.5-3.3 1.6-4.4a6 6 0 0 1 4.4-1.7Zm27 11.6c-1.6.4-3.4.5-5.4.5-3.3 0-5.7-.8-7.3-2.4-.6-.5-1-1.3-1.4-2.2a10 10 0 0 1 .3-7c.5-1.2 1.2-2 2.1-2.7 1.8-1.3 3.9-2 6.3-2l5 .2.1 4.4h-.7l-.9-3.2c-.8-.3-1.9-.5-3-.5-2 0-3.6.6-4.9 2-1.2 1.2-1.9 3-1.9 5.5 0 2.4.7 4.2 1.9 5.4a6.8 6.8 0 0 0 4.8 1.7c1 0 1.8-.1 2.6-.3v-5.1l-2-.2v-.6h5.8v.6l-1.5.2v5.7Zm5.4-2.2c0 1 .4 1.7 1.3 1.9h.5c.6 0 1.3-.2 2-.7.6-.6 1-1.3 1-2.2v-2c-3.2 0-4.8 1-4.8 3Zm1 2.9c-1 0-1.7-.3-2.4-.8-.6-.5-1-1.2-1-2 0-1.3.7-2.2 2-2.9 1.1-.6 2.9-.9 5.2-.9v-2c0-2-.8-3-2.2-3-.8 0-1.4.2-1.9.9-.3.4-.4 1-.4 1.6v.8l-.6.3c-.3 0-.5 0-.7-.2a1 1 0 0 1-.8-1c0-.8.3-1.4.8-1.9.9-.8 2-1.2 3.6-1.2 1.5 0 2.6.4 3.3 1 .7.6 1 1.7 1 3v7.3l2 .1v.6l-4 .3-.2-2.2c-.7 1.5-2 2.2-3.7 2.2Zm25-12.2c2.5 0 3.8 1.3 3.8 3.7 0 1.8 0 4.3-.2 7.5l1.7.1v.6h-5.4v-.6h1.3l.2-7.8c0-.9-.2-1.5-.5-2-.3-.4-.9-.7-1.6-.7a3 3 0 0 0-2.1 1c-.7.6-1 1.3-1.3 2 0 1.7 0 4.2-.2 7.4l1.7.1v.6h-5.3v-.6h1.3l.1-7.8c0-.9-.1-1.5-.5-2-.3-.4-.9-.7-1.7-.7-.8 0-1.6.5-2.3 1.4-.7.8-1.1 1.6-1.1 2.3v6.7l1.8.1v.6h-5.7v-.6h1.5v-10.2l-2-.1v-.6l4.3-.3-.1 2.5h.2c.5-.9 1-1.5 1.8-2 .7-.4 1.5-.6 2.4-.6 2.1 0 3.4.9 3.7 2.6.4-.9 1-1.5 1.7-2 .8-.4 1.6-.6 2.4-.6Zm10.9-3.7c0 .4-.2.7-.4 1-.3.3-.7.4-1 .4-.5 0-.8-.1-1-.4-.3-.3-.5-.6-.5-1s.2-.8.4-1c.3-.3.6-.5 1-.5s.8.2 1 .4c.3.3.5.7.5 1ZM327 449v-.6l1.6-.1v-10.2h-2.1v-.6l4.4-.3v11.1l1.6.1v.6H327Zm11-9.2c.7-1.8 2.1-2.8 4.3-2.8 1.1 0 2 .4 2.7 1 .6.7 1 1.6 1 2.8 0 2 0 4.6-.2 7.5l1.6.1v.6h-5.3v-.6h1.3a340.5 340.5 0 0 0 0-8.5c0-.4-.1-.8-.3-1-.3-.6-.9-.9-1.6-.9a3 3 0 0 0-2.5 1.3c-.7.8-1 1.7-1 2.7v6.3l1.8.1v.6H334v-.6l1.6-.1v-10.1l-2-.1v-.6l4.3-.3-.1 2.6h.2Zm14 6.8c0 .4.2.6.7.7.6.2 1.7.3 3.3.4 1.7.2 2.8.5 3.6 1 .7.3 1 1 1 2 0 1.3-.6 2.3-1.7 3.2a7.4 7.4 0 0 1-4.6 1.3c-1.9 0-3.2-.3-4.1-.9a2.7 2.7 0 0 1-1.3-2.3c0-.7.2-1.3.6-2 .4-.5 1-.9 1.9-1.1-1-.4-1.5-1-1.5-1.8 0-.5.3-.9.8-1.2.5-.3 1-.5 1.7-.6-1-.3-1.8-.8-2.4-1.5a4 4 0 0 1-.8-2.5c0-1.3.5-2.3 1.4-3 1-.9 2.2-1.3 3.7-1.3.5 0 1 0 1.5.2.5-.1.8-.4 1.1-.7.3-.4.4-.9.4-1.3V434l.6-.1c.3 0 .5 0 .7.2.4.2.6.6.6 1.1 0 .6-.2 1-.7 1.5-.6.4-1.2.6-2 .7a4 4 0 0 1 2.7 3.9c0 1.3-.5 2.4-1.5 3-1 .8-2.3 1.2-3.8 1.2-.6 0-1 .1-1.4.4-.3.2-.5.4-.5.7Zm-1.3 5c0 1 .3 1.6 1 2.1s1.6.8 2.7.8c1.2 0 2.2-.3 3-.9 1-.5 1.4-1.2 1.4-2 0-.6-.2-1-.5-1.3l-1.3-.5a77 77 0 0 0-4.8-.6 2.9 2.9 0 0 0-1.5 2.5Zm3.5-6.6c.9 0 1.5-.4 2-1a5 5 0 0 0 .6-2.7c0-2.5-.8-3.7-2.5-3.7-.9 0-1.5.3-2 1-.4.6-.6 1.5-.6 2.7 0 2.5.8 3.7 2.5 3.7Z" fill="#000"/>
  <defs>
    <filter id="a" x="172.7" y="350.2" width="55.5" height="54.8" filterUnits="userSpaceOnUse" color-interpolation-filters="sRGB">
      <feFlood flood-opacity="0" result="BackgroundImageFix"/>
      <feColorMatrix in="SourceAlpha" values="0 0 0 0 0 0 0 0 0 0 0 0 0 0 0 0 0 0 127 0" result="hardAlpha"/>
      <feOffset dy="4"/>
      <feGaussianBlur stdDeviation="2"/>
      <feComposite in2="hardAlpha" operator="out"/>
      <feColorMatrix values="0 0 0 0 0 0 0 0 0 0 0 0 0 0 0 0 0 0 0.6 0"/>
      <feBlend in2="BackgroundImageFix" result="effect1_dropShadow_12_73"/>
      <feBlend in="SourceGraphic" in2="effect1_dropShadow_12_73" result="shape"/>
    </filter>
    <filter id="b" x="333.6" y="349.8" width="54.5" height="55.7" filterUnits="userSpaceOnUse" color-interpolation-filters="sRGB">
      <feFlood flood-opacity="0" result="BackgroundImageFix"/>
      <feColorMatrix in="SourceAlpha" values="0 0 0 0 0 0 0 0 0 0 0 0 0 0 0 0 0 0 127 0" result="hardAlpha"/>
      <feOffset dy="4"/>
      <feGaussianBlur stdDeviation="2"/>
      <feComposite in2="hardAlpha" operator="out"/>
      <feColorMatrix values="0 0 0 0 0 0 0 0 0 0 0 0 0 0 0 0 0 0 0.6 0"/>
      <feBlend in2="BackgroundImageFix" result="effect1_dropShadow_12_73"/>
      <feBlend in="SourceGraphic" in2="effect1_dropShadow_12_73" result="shape"/>
    </filter>
  </defs>
</svg>
